<?xml version="1.0" encoding="UTF-8"?><svg id="Livello_1" xmlns="http://www.w3.org/2000/svg" xmlns:xlink="http://www.w3.org/1999/xlink" viewBox="0 0 106.71 106.52"><defs><linearGradient id="Sfumatura_senza_nome_9" x1="-2702.27" y1="2374.46" x2="-2715.9" y2="2368.95" gradientTransform="translate(-2255.38 -2682.22) rotate(-89.25)" gradientUnits="userSpaceOnUse"><stop offset="0" stop-color="#e267fb"/><stop offset=".15" stop-color="#d961f8"/><stop offset=".39" stop-color="#c053ef"/><stop offset=".69" stop-color="#993be2"/><stop offset="1" stop-color="#6a1fd3"/></linearGradient><linearGradient id="Sfumatura_senza_nome_5" x1="-2708.62" y1="2375.83" x2="-2691.05" y2="2358.25" gradientTransform="translate(-2255.38 -2682.22) rotate(-89.25)" gradientUnits="userSpaceOnUse"><stop offset="0" stop-color="#ff63fa"/><stop offset=".18" stop-color="#fb61f8"/><stop offset=".33" stop-color="#f15cf5"/><stop offset=".46" stop-color="#e053ef"/><stop offset=".59" stop-color="#c847e7"/><stop offset=".72" stop-color="#a938dc"/><stop offset=".84" stop-color="#8325cf"/><stop offset=".95" stop-color="#560fc0"/><stop offset="1" stop-color="#4105b9"/></linearGradient></defs><path d="M75.09,63.11c.99,1.02,2.64,1.04,3.66.04l7.41-7.22c1.02-.99,1.04-2.64.05-3.66-.99-1.02-2.64-1.04-3.66-.04l-7.41,7.22c-1.02.99-1.04,2.64-.05,3.66Z" fill="url(#Sfumatura_senza_nome_9)" stroke-width="0"/><path d="M72.47,38.18c-.99-1.02-2.64-1.04-3.66-.05-1.02.99-1.04,2.64-.04,3.66l10.13,10.39c.99,1.02.82.84,1.81,1.85,2.24,2.3,1.85,5.41.83,6.4,0,0,4.62-4.5,4.62-4.5,1.02-.99,1.04-2.64.04-3.66l-13.73-14.09Z" fill="url(#Sfumatura_senza_nome_5)" stroke-width="0"/><path d="M35.33,65.74h.34v.89c.06-.06.13-.11.2-.15.07-.04.15-.06.23-.06.21,0,.36.08.45.23.05.05.08.13.09.22.02.09.02.24.02.45s0,.35-.02.44c-.02.09-.05.17-.1.22-.05.07-.11.12-.18.16-.08.04-.17.06-.27.07-.18,0-.32-.07-.43-.2v.18h-.34v-2.44ZM36,66.77c-.08,0-.14.02-.18.05-.05.03-.08.07-.1.13-.02.05-.03.11-.04.17s0,.13,0,.19c0,.06,0,.12,0,.19s.02.12.04.18c.02.05.06.1.1.13.04.03.1.05.18.05.08,0,.14-.02.19-.05.05-.03.08-.07.1-.12.02-.05.04-.11.04-.18,0-.06,0-.13,0-.19s0-.14,0-.2c0-.06-.02-.12-.04-.17-.02-.05-.05-.09-.1-.12-.05-.03-.11-.04-.19-.04Z" fill="#3f01c1" stroke-width="0"/><path d="M36.87,66.44h.36l.4,1.22h0l.4-1.22h.36l-.73,2.1c-.05.13-.11.22-.19.27-.08.05-.18.07-.28.07h-.11v-.33h.1s.08-.01.12-.04c.04-.03.06-.06.08-.11l.09-.29-.6-1.67Z" fill="#3f01c1" stroke-width="0"/><path d="M41.77,65.6v2.61h-.32s-.09,0-.12-.02c-.03-.02-.06-.04-.1-.08l-1.23-1.55s0,.09,0,.14v1.52h-.53v-2.61h.39s.03,0,.05,0c0,0,.03.02.04.03,0,0,.03.03.05.05l1.25,1.57s0-.1,0-.15v-1.52h.52Z" fill="#3f01c1" stroke-width="0"/><path d="M43.45,66.06v.61h.82v.45h-.82v.62h1.07v.46h-1.68v-2.61h1.68v.46h-1.07Z" fill="#3f01c1" stroke-width="0"/><path d="M48.98,65.6l-.81,2.61h-.54l-.49-1.62s-.02-.05-.03-.08-.02-.06-.03-.1c0,.03-.02.07-.03.1,0,.03-.02.06-.03.08l-.49,1.62h-.54l-.81-2.61h.5s.1,0,.13.04c.04.02.06.06.07.1l.36,1.36s.02.09.03.14c0,.05.02.1.03.16.02-.11.05-.21.08-.3l.43-1.36s.03-.06.07-.09c.04-.03.08-.04.13-.04h.18s.1,0,.13.04c.03.02.06.06.07.1l.42,1.36c.03.08.06.18.08.29,0-.05.02-.11.03-.15,0-.05.02-.09.03-.14l.36-1.36s.03-.07.07-.09c.04-.03.08-.04.13-.04h.51v-.02Z" fill="#3f01c1" stroke-width="0"/><path d="M51.76,66.08h-.73v2.14h-.6v-2.14h-.73v-.48h2.08v.48h0Z" fill="#3f01c1" stroke-width="0"/><path d="M54.86,66.9c0,.19-.03.37-.1.52s-.16.31-.28.43-.26.22-.43.29-.36.1-.55.1c-.21,0-.39-.03-.55-.1-.17-.07-.31-.16-.43-.29-.12-.12-.21-.26-.28-.43-.07-.16-.1-.34-.1-.52s.03-.37.1-.52c.07-.16.16-.31.28-.43.12-.12.27-.22.43-.28.17-.07.36-.1.55-.1.21,0,.39.03.55.1.17.07.31.16.43.29.12.12.21.26.28.43.06.15.1.33.1.51ZM54.24,66.9c0-.13-.02-.25-.05-.35s-.08-.19-.15-.27c-.06-.07-.14-.13-.23-.17-.09-.04-.2-.06-.31-.06-.12,0-.22.02-.32.06-.09.04-.17.09-.23.17-.06.07-.11.16-.15.27-.03.1-.05.22-.05.35s.02.25.05.35.08.19.15.27c.06.07.14.13.23.17.09.04.2.06.32.06s.22-.02.31-.06c.09-.04.17-.09.23-.17.06-.07.11-.16.15-.27.03-.1.05-.22.05-.35Z" fill="#3f01c1" stroke-width="0"/><path d="M57.76,65.6v2.61h-.32s-.09,0-.12-.02c-.03-.02-.06-.04-.1-.08l-1.23-1.55s0,.09,0,.14v1.52h-.53v-2.61h.39s.03,0,.05,0c0,0,.03.02.04.03s.03.03.05.05l1.25,1.57s0-.1,0-.15v-1.52h.52Z" fill="#3f01c1" stroke-width="0"/><path d="M21.56,56.57h-.26v-.26h.26v.26ZM23.36,56.57v-.26h-.26v.26h.26ZM22.59,56.31v-.26h-.26v.26h.26ZM22.07,55.8v.26h.26v-.26h-.26ZM21.56,55.54h-.26v.26h.26v-.26ZM25.19,53.15v.26h.26v-.26h-.26ZM25.7,53.67v-.26h-.26v.26h.26ZM26.22,53.92h.26v-.26h-.26v.26ZM20.03,56.83h-.26v.23h.26v-.23ZM19.77,58.95h.26v-.27h-.26v.27ZM20.29,57.87h-.26v.27h.26v-.27ZM20.54,57.6h-.26v.27h.26v-.27ZM20.8,56.83h-.26v.23h.26v-.23ZM30.98,44.2c.67.71,1.01,1.72,1.01,3.02v7.4c0,1.48-.36,2.57-1.08,3.28-.72.7-1.75,1.06-3.1,1.06h-3.78s0-.01,0-.01v-.27h-.26v.27h-1.8v-.27h-.26s0,0,0,0h0s0,0,0,0v.27h-.26v-.27h-.26v.27h-.51v-.27h-.51v-.27h.51v-.27h.51s0,0,0,0v.27h.26v-.27h-.26s0,0,0,0v-.27h.26v-.27h-.26v-.27h-.26v-.27h.26v.27h.26v-.5h1.28v.23h0s0,0,0,0h0s.26,0,.26,0v-.23h.51v.23h0s.26,0,.26,0v-.23h4.19c.64-.01,1.09-.17,1.36-.49.27-.32.4-.82.4-1.5v-7.62c0-.62-.13-1.1-.38-1.44-.25-.34-.71-.51-1.38-.51h-1.04v3.83h0s-.32,0-.32,0v.28h.28v.28h0v.56h0v.28h0v.28h0v.56h0s-.28,0-.28,0v.28h.28v.28h0s-.28,0-.28,0v.28h.28v.56h0s-.28,0-.28,0h0s0,0,0,0v-.28h-.28v.28h.28v.56h-.28v-.56h-.28s0,0,0,0v-.56h-.28v-.28h-.28v.28h-.28v.28h-.28v-.28h.28v-.28h-.56v-.28h0v-.28h0v-.28h0v-.28h0v-.28h0s.28,0,.28,0v-.28h-.28v-.56h0s.28,0,.28,0h0s0,0,0,0v-.28h-.28v-.28h0v-5.97h3.36c1.3,0,2.29.36,2.97,1.07ZM25.49,49.38h.28v-.28h-.28v.28ZM25.49,50.77h.28v-.28h-.28v.28ZM25.49,50.21v-.28h-.28v.28h.28ZM25.49,49.38h-.28v.28h0s.28,0,.28,0h0s0,0,0,0v-.28ZM24.93,49.38h.28v-.28h-.28v.28ZM25.21,51.32v-.28h-.28v.28h.28ZM25.49,51.32h-.28v.28h.28v-.28ZM25.77,51.05h-.28v.28h.28v-.28ZM26.04,50.77h-.28v.28h.28v-.28ZM26.04,49.93h-.28v.28h.28v-.28ZM26.04,49.65h.28v-.28h-.28v.28ZM26.32,51.88h-.28v.28h.28v-.28ZM26.32,51.32h-.28v.28h.28v-.28ZM26.6,50.77h-.28v.28h.28v-.28ZM26.6,50.49h0v-.28h-.28v.28h.28s0,0,0,0h0ZM20.95,58.41h-.26v.27h.26v-.27ZM21.98,58.14h-.26s0,0,0,0h0s0,0,0,0v.27h0s0,0,0,0h0s.26,0,.26,0v-.27ZM21.98,57.34h-.26v.27h.26v-.27ZM21.98,57.34h.26v-.27h-.26v.27ZM22.49,58.41h-.26v.27h.26v-.27ZM22.49,57.87h-.26s0,0,0,0v-.27h-.26v.27h.26s0,0,0,0v.27h.26v-.27ZM22.75,57.6h-.26v.27h.26v-.27ZM23,58.41h-.26v.27h.26v-.27ZM23.26,57.87h-.26v.27h.26v-.27ZM23.26,57.34h-.26v.27h.26v-.27ZM23.78,58.14h-.26v.27h.26v-.27ZM23.78,57.34h-.26v.27h0s.26,0,.26,0v-.27ZM24.03,57.6h-.26v.27h.26v-.27ZM24.03,57.07h-.26v.27h.26v-.27ZM34.12,58.96h6.76v-2.27h-4.49v-4.64h3.91v-2.13h-3.91v-4.64h4.49v-2.13h-6.76v15.82ZM49.68,47.69v-1.11c0-.92-.34-1.73-1.02-2.44-.34-.34-.74-.61-1.21-.82-.47-.21-.98-.31-1.54-.31-.67,0-1.24.11-1.72.34-.48.23-.88.54-1.19.92-.33.39-.57.84-.73,1.38-.16.53-.24,1.1-.24,1.69,0,.99.17,1.82.5,2.48.33.66.99,1.19,1.97,1.59l1.62.67c.28.12.51.23.68.33.17.1.31.24.41.4.09.16.15.38.18.64.03.27.04.61.04,1.02,0,.36-.01.68-.03.97-.02.29-.09.54-.21.74-.12.21-.29.37-.5.48-.21.11-.51.17-.9.17-.58,0-.99-.17-1.23-.5-.24-.33-.37-.71-.37-1.12v-.71h-2.27v.84c0,.53.1,1.03.3,1.48.2.45.47.85.81,1.19.34.34.75.61,1.22.8.47.19.99.29,1.53.29.73,0,1.34-.12,1.84-.36.5-.24.91-.56,1.22-.98.3-.4.51-.89.64-1.46.13-.57.2-1.19.2-1.86,0-.58-.03-1.09-.09-1.54-.06-.45-.17-.86-.33-1.21-.18-.34-.42-.64-.73-.9-.31-.26-.72-.49-1.22-.68l-1.73-.69c-.3-.12-.53-.24-.7-.36-.17-.12-.3-.26-.39-.42-.09-.16-.14-.35-.17-.56-.02-.21-.03-.47-.03-.78,0-.27.02-.52.07-.77.04-.24.13-.46.24-.66.12-.18.27-.33.47-.44.19-.12.44-.18.76-.18.58,0,.99.19,1.23.57.24.38.37.83.37,1.34v.51h2.27Z" fill="#3f01c1" stroke-width="0"/><path d="M52.26,47.91v-3.98h1.22c.35,0,.66.08.94.24.28.16.49.38.65.67s.23.62.23.99v.18c0,.37-.08.7-.23.99-.15.29-.37.51-.64.67-.28.16-.59.24-.94.24h-1.23ZM53.08,44.6v2.65h.4c.32,0,.57-.1.73-.31.17-.21.26-.51.26-.9v-.21c0-.4-.08-.71-.25-.92-.17-.21-.41-.31-.73-.31h-.4ZM55.83,44.19c0-.12.04-.22.12-.29.08-.08.19-.11.32-.11s.24.04.32.11c.08.08.12.17.12.29s-.04.22-.12.29c-.08.08-.19.11-.32.11s-.24-.04-.32-.11c-.08-.08-.12-.17-.12-.29ZM56.67,47.91h-.79v-2.95h.79v2.95ZM57.21,46.41c0-.45.11-.82.32-1.1.22-.28.51-.42.87-.42.32,0,.58.11.76.33l.03-.28h.72v2.86c0,.26-.06.48-.18.67-.12.19-.28.34-.5.44-.21.1-.46.15-.75.15-.22,0-.43-.04-.63-.13-.21-.09-.36-.2-.47-.33l.35-.48c.2.22.44.33.72.33.21,0,.37-.06.49-.17.12-.11.17-.27.17-.48v-.16c-.18.21-.42.31-.72.31-.35,0-.64-.14-.86-.42-.22-.28-.33-.65-.33-1.1v-.03ZM58,46.47c0,.27.05.48.16.63s.25.23.44.23c.24,0,.41-.09.52-.27v-1.24c-.11-.18-.28-.27-.51-.27-.19,0-.34.08-.45.23s-.16.39-.16.69ZM60.51,44.19c0-.12.04-.22.12-.29.08-.08.19-.11.32-.11s.24.04.32.11c.08.08.12.17.12.29s-.04.22-.12.29c-.08.08-.19.11-.32.11s-.24-.04-.32-.11c-.08-.08-.12-.17-.12-.29ZM61.35,47.91h-.79v-2.95h.79v2.95ZM62.94,44.23v.73h.51v.58h-.51v1.47c0,.11.02.19.06.23.04.05.12.07.24.07.09,0,.16,0,.23-.02v.6c-.15.05-.31.07-.48.07-.55,0-.84-.28-.85-.84v-1.59h-.43v-.58h.43v-.73h.79ZM65.6,47.91c-.04-.07-.06-.16-.08-.26-.19.21-.44.32-.75.32-.29,0-.53-.08-.72-.25-.19-.17-.29-.38-.29-.63,0-.31.12-.55.35-.72s.57-.25,1.01-.25h.36v-.17c0-.14-.04-.25-.11-.33-.07-.08-.18-.12-.33-.12-.13,0-.24.03-.31.1-.08.06-.11.15-.11.26h-.79c0-.17.05-.33.16-.48.11-.15.25-.26.45-.34.19-.08.41-.12.65-.12.36,0,.65.09.87.27.21.18.32.44.32.77v1.28c0,.28.04.49.12.64v.05h-.8ZM64.95,47.36c.12,0,.22-.03.32-.08.1-.05.17-.12.22-.21v-.51h-.29c-.4,0-.61.14-.63.41v.05c0,.1.03.18.1.24.07.06.16.1.28.1ZM67.72,47.91h-.79v-4.19h.79v4.19ZM54.65,51.8h-1.57v1.07h1.85v.66h-2.67v-3.98h2.66v.66h-1.84v.95h1.57v.64ZM56.39,52.56l.55-1.99h.82l-1,2.95h-.75l-1-2.95h.82l.55,1.99ZM59.43,53.58c-.43,0-.79-.13-1.06-.4-.27-.27-.41-.62-.41-1.06v-.08c0-.3.06-.56.17-.8.11-.23.28-.41.49-.54.21-.13.45-.19.72-.19.4,0,.72.13.95.38.23.25.35.62.35,1.08v.32h-1.88c.03.19.1.35.23.46.13.12.29.17.49.17.3,0,.54-.11.71-.33l.39.43c-.12.17-.28.3-.48.39-.2.09-.43.14-.67.14ZM59.34,51.15c-.16,0-.28.05-.38.16-.1.11-.16.26-.19.46h1.1v-.06c0-.18-.05-.31-.14-.41s-.22-.14-.39-.14ZM61.82,50.57l.02.34c.21-.26.49-.4.85-.4.31,0,.55.09.7.28.15.18.23.46.23.82v1.91h-.79v-1.89c0-.17-.04-.29-.11-.36-.07-.08-.19-.11-.36-.11-.22,0-.39.09-.5.28v2.08h-.79v-2.95h.74ZM65.17,49.84v.73h.51v.58h-.51v1.47c0,.11.02.19.06.23.04.05.12.07.24.07.09,0,.16,0,.23-.02v.6c-.15.05-.31.07-.48.07-.55,0-.84-.28-.85-.84v-1.59h-.43v-.58h.43v-.73h.79ZM54.32,58.1c0-.15-.05-.27-.16-.36-.11-.08-.31-.17-.59-.26-.28-.09-.51-.18-.67-.27-.45-.24-.68-.57-.68-.99,0-.21.06-.41.18-.57.12-.17.29-.3.52-.39s.48-.14.76-.14.54.05.76.15c.22.1.39.25.52.44.12.19.18.4.18.64h-.82c0-.18-.06-.32-.17-.42-.11-.1-.28-.15-.48-.15s-.36.04-.47.13c-.11.08-.17.2-.17.33,0,.13.07.24.2.32.13.09.32.17.57.25.47.14.81.31,1.02.52s.32.47.32.78c0,.34-.13.61-.39.81-.26.2-.61.29-1.05.29-.31,0-.58-.06-.84-.17-.25-.11-.44-.27-.57-.46s-.2-.42-.2-.68h.82c0,.44.26.66.79.66.19,0,.35-.04.46-.12.11-.08.16-.19.16-.33ZM56.75,58.02l.55-1.84h.85l-1.19,3.41-.07.16c-.18.39-.47.58-.87.58-.11,0-.23-.02-.35-.05v-.6h.12c.15,0,.26-.02.33-.07.07-.05.13-.12.17-.23l.09-.24-1.04-2.96h.85l.55,1.84ZM60.05,58.32c0-.1-.05-.17-.14-.23s-.25-.11-.46-.15c-.7-.15-1.05-.45-1.05-.9,0-.26.11-.48.33-.66.22-.18.5-.26.85-.26.37,0,.67.09.9.26.22.18.34.41.34.69h-.79c0-.11-.04-.21-.11-.28-.07-.07-.19-.11-.34-.11-.13,0-.24.03-.31.09-.07.06-.11.14-.11.23,0,.09.04.16.12.21.08.05.22.1.42.14.2.04.36.08.5.13.42.15.63.42.63.79,0,.27-.12.49-.35.65-.23.17-.53.25-.9.25-.25,0-.47-.04-.66-.13-.19-.09-.34-.21-.45-.36s-.16-.32-.16-.5h.75c0,.14.06.25.16.32.1.07.23.11.39.11.15,0,.27-.03.34-.09.08-.06.12-.13.12-.23ZM62.27,55.46v.73h.51v.58h-.51v1.47c0,.11.02.19.06.23.04.05.12.07.24.07.09,0,.16,0,.23-.02v.6c-.15.05-.31.07-.48.07-.55,0-.84-.28-.85-.84v-1.59h-.43v-.58h.43v-.73h.79ZM64.58,59.19c-.43,0-.79-.13-1.06-.4-.27-.27-.41-.62-.41-1.06v-.08c0-.3.06-.56.17-.8.11-.23.28-.41.49-.54.21-.13.45-.19.72-.19.4,0,.72.13.95.38.23.25.35.62.35,1.08v.32h-1.88c.03.19.1.35.23.46.13.12.29.17.49.17.3,0,.54-.11.71-.33l.39.43c-.12.17-.28.3-.48.39-.2.09-.43.14-.67.14ZM64.49,56.77c-.16,0-.28.05-.38.16-.1.11-.16.26-.19.46h1.1v-.06c0-.18-.05-.31-.14-.41s-.22-.14-.39-.14ZM66.98,56.18l.02.33c.21-.26.49-.39.85-.39.38,0,.64.15.78.45.21-.3.5-.45.89-.45.32,0,.56.09.72.28.16.19.23.47.23.84v1.89h-.79v-1.88c0-.17-.03-.29-.1-.37-.07-.08-.18-.12-.35-.12-.24,0-.4.11-.49.34v2.03s-.79,0-.79,0v-1.88c0-.17-.03-.29-.1-.37s-.18-.11-.34-.11c-.22,0-.39.09-.49.28v2.09h-.79v-2.95h.74Z" fill="#3f01c1" stroke-width="0"/></svg>