<?xml version="1.0" encoding="UTF-8"?><svg id="Livello_1" xmlns="http://www.w3.org/2000/svg" viewBox="0 0 106.71 106.52"><path d="M12.5,46.65v-7.06h1.46c1.06,0,1.82.09,2.3.25.69.24,1.22.66,1.61,1.25.39.59.58,1.3.58,2.12,0,.71-.15,1.33-.46,1.87-.31.54-.7.93-1.19,1.19-.49.26-1.17.38-2.05.38h-2.25ZM13.17,45.99h.82c.98,0,1.65-.06,2.03-.18.53-.17.95-.48,1.25-.93.3-.45.46-1,.46-1.65,0-.68-.16-1.26-.49-1.75-.33-.48-.79-.81-1.38-.99-.44-.13-1.17-.2-2.18-.2h-.5v5.7Z" fill="#c62031" stroke-width="0"/><path d="M27.51,39.59h.71v7.06h-.71v-7.06Z" fill="#c62031" stroke-width="0"/><path d="M44.44,40.78l-.55.52c-.39-.39-.83-.68-1.29-.88-.47-.2-.93-.3-1.37-.3-.55,0-1.08.14-1.58.41-.5.27-.89.64-1.16,1.11-.28.47-.41.96-.41,1.48s.14,1.04.43,1.51c.28.48.68.85,1.18,1.13.5.27,1.05.41,1.65.41.73,0,1.34-.2,1.84-.61.5-.41.8-.94.89-1.59h-2.25v-.68h3.04c0,1.09-.33,1.96-.97,2.6-.64.64-1.5.96-2.58.96-1.31,0-2.34-.44-3.1-1.34-.59-.68-.88-1.48-.88-2.38,0-.67.17-1.29.5-1.87.34-.58.8-1.03,1.38-1.35.58-.33,1.25-.49,1.99-.49.6,0,1.16.11,1.69.32.53.22,1.04.56,1.55,1.04Z" fill="#c62031" stroke-width="0"/><path d="M53.9,39.59h.71v7.06h-.71v-7.06Z" fill="#c62031" stroke-width="0"/><path d="M63.32,40.28v-.69h3.87v.69h-1.58v6.37h-.72v-6.37h-1.58Z" fill="#c62031" stroke-width="0"/><path d="M78.89,39.59l3.29,7.06h-.76l-1.11-2.32h-3.04l-1.1,2.32h-.79l3.34-7.06h.17ZM78.8,41.09l-1.21,2.56h2.42l-1.21-2.56Z" fill="#c62031" stroke-width="0"/><path d="M91.08,39.59h.71v6.38h2.72v.68h-3.42v-7.06Z" fill="#c62031" stroke-width="0"/><path d="M55.71,55.07c-.57-.17-1.5-.26-2.8-.26h-.64v7.31h1.05c1.25,0,2.12-.08,2.6-.23.68-.22,1.21-.62,1.6-1.2.39-.58.58-1.28.58-2.11,0-.87-.21-1.62-.63-2.24-.42-.62-1.01-1.04-1.77-1.27Z" fill="#c62030" stroke-width="0"/><polygon points="18.52 59.12 21.61 59.12 20.07 55.85 18.52 59.12" fill="#c62030" stroke-width="0"/><polygon points="42.1 59.12 45.2 59.12 43.66 55.85 42.1 59.12" fill="#c62030" stroke-width="0"/><path d="M8.95,49.92v17.18h88.82v-17.18H8.95ZM23.42,62.97l-1.42-2.98h-3.9l-1.41,2.98h-1.01l4.27-9.05h.22l4.22,9.05h-.98ZM29.49,61.24c.76.74,1.71,1.11,2.86,1.11,1.27,0,2.33-.5,3.18-1.49l.71.54c-.45.57-1.01,1.02-1.69,1.33-.67.31-1.43.47-2.26.47-1.58,0-2.83-.53-3.75-1.58-.77-.89-1.15-1.96-1.15-3.22,0-1.32.46-2.44,1.39-3.34.93-.9,2.09-1.36,3.49-1.36.84,0,1.61.17,2.29.5.68.33,1.24.8,1.67,1.41l-.71.55c-.39-.51-.87-.9-1.42-1.17-.55-.26-1.16-.4-1.82-.4-.72,0-1.39.17-2.01.52-.62.35-1.09.81-1.43,1.4-.34.58-.51,1.24-.51,1.97,0,1.1.38,2.02,1.13,2.76ZM47.01,62.97l-1.42-2.98h-3.9l-1.41,2.98h-1.01l4.27-9.05h.22l4.22,9.05h-.98ZM58.44,60.95c-.39.69-.9,1.2-1.53,1.53-.62.33-1.5.49-2.63.49h-2.88v-9.05h1.88c1.35,0,2.34.11,2.95.33.88.31,1.56.84,2.06,1.6.49.76.74,1.66.74,2.71,0,.91-.2,1.7-.59,2.39ZM67.99,54.81h-4.28v2.84h4.24v.89h-4.24v3.56h4.24v.89h-5.15v-9.05h5.18v.89ZM80.47,62.97l-.89-6.47-3.2,6.47h-.23l-3.24-6.52-.89,6.52h-.87l1.29-9.05h.15l3.68,7.42,3.64-7.42h.15l1.3,9.05h-.89ZM88.25,58.65v4.32h-.89v-4.32l-2.92-4.72h1.04l2.32,3.73,2.28-3.73h1.05l-2.87,4.72Z" fill="#c62030" stroke-width="0"/><path d="M97.76,41.07c0,.27-.07.51-.2.74-.13.23-.31.41-.54.54-.23.13-.47.2-.73.2s-.51-.07-.73-.2c-.23-.13-.41-.31-.54-.54-.13-.23-.2-.47-.2-.73s.07-.51.2-.74c.13-.23.31-.41.54-.54.23-.13.47-.2.74-.2s.51.06.73.2c.23.13.4.31.54.54.13.23.2.47.2.73ZM97.56,41.07c0-.22-.06-.44-.17-.63-.11-.2-.27-.35-.46-.47-.19-.11-.4-.17-.63-.17s-.44.06-.63.17c-.2.11-.35.27-.47.47-.11.2-.17.41-.17.64s.06.44.17.63c.11.2.27.35.47.46.2.11.41.17.63.17s.43-.06.63-.17c.2-.11.35-.27.46-.46.11-.2.17-.41.17-.64ZM95.68,40.21h.71c.17,0,.28.02.36.05.07.03.13.09.18.16.05.08.07.16.07.26,0,.09-.02.16-.05.22-.02.05-.08.1-.16.15.08.04.13.08.15.13.03.05.04.13.04.25v.19c0,.09.02.17.06.23l.03.04h-.3c-.02-.07-.03-.15-.04-.25v-.21c-.02-.08-.03-.13-.05-.16-.02-.03-.05-.05-.08-.07-.04-.01-.11-.02-.21-.02h-.42v.71h-.27v-1.7ZM95.95,40.45v.5h.42c.13,0,.21-.01.26-.04.07-.04.1-.11.1-.21,0-.09-.02-.15-.07-.19-.05-.04-.14-.06-.27-.06h-.43Z" fill="#c62030" stroke-width="0"/></svg>