<?xml version="1.0" encoding="UTF-8"?><svg id="Livello_1" xmlns="http://www.w3.org/2000/svg" viewBox="0 0 106.71 106.52"><rect width="106.71" height="106.52" fill="#fff" stroke-width="0"/><path d="M35.37,41.11h2.27v10.2h-2.06l-4.49-6.58v6.58h-2.27v-10.2h2.37l4.18,6.24v-6.24ZM42.58,51.46c-1.12,0-2.07-.4-2.77-1.09-.67-.7-1.02-1.69-1.02-2.81s.37-2.03,1.05-2.76c.68-.74,1.63-1.14,2.7-1.14s1.97.38,2.61,1.11c.57.67.89,1.6.89,2.68v.6h-5.07c.16,1.01.77,1.6,1.63,1.6.74,0,1.26-.35,1.48-.99l1.9.61c-.52,1.36-1.83,2.19-3.41,2.19ZM42.51,45.42c-.72,0-1.24.44-1.46,1.24h2.76c-.01-.74-.51-1.24-1.29-1.24ZM49.62,48.21l1.12-4.39h1.7l1.14,4.39,1.15-4.39h2.22l-2.27,7.49h-1.95l-1.18-4.15-1.18,4.15h-1.95l-2.27-7.49h2.29l1.18,4.39ZM60.49,51.37c-1.72,0-2.43-.61-2.43-2.07v-3.61h-.95v-1.88h.95v-2.07h2.24v2.07h1.46v1.88h-1.46v3.03c0,.53.21.74.89.74.21,0,.31,0,.65-.04v1.86c-.5.07-.91.1-1.36.1ZM68.96,44.77c.67.72,1.02,1.68,1.02,2.8s-.36,2.09-1.02,2.78c-.67.72-1.63,1.11-2.73,1.11s-2.06-.38-2.74-1.11c-.64-.7-1.01-1.66-1.01-2.78s.37-2.1,1.01-2.8c.68-.72,1.65-1.11,2.74-1.11s2.06.38,2.73,1.11ZM66.24,45.52c-.92,0-1.49.75-1.49,2.04s.57,2.05,1.49,2.05,1.49-.75,1.49-2.05-.57-2.04-1.49-2.04ZM73.33,51.3h-2.27v-7.49h2.27v.75c.5-.57,1.22-.91,2.06-.91,1.52,0,2.5,1.05,2.5,2.7v4.94h-2.27v-4.29c0-.84-.37-1.31-1.05-1.31-.72,0-1.24.53-1.24,1.32v4.27ZM39.61,59.04v-3.98h2.37v10.2h-2.37v-4.2h-4.15v4.2h-2.37v-10.2h2.37v3.98h4.15ZM49.59,58.73c.67.72,1.02,1.68,1.02,2.8s-.36,2.09-1.02,2.78c-.67.72-1.63,1.11-2.73,1.11s-2.06-.38-2.74-1.11c-.64-.7-1.01-1.66-1.01-2.78s.37-2.1,1.01-2.8c.68-.72,1.65-1.11,2.74-1.11s2.06.38,2.73,1.11ZM46.87,59.48c-.92,0-1.49.75-1.49,2.04s.57,2.05,1.49,2.05,1.49-.75,1.49-2.05-.57-2.04-1.49-2.04ZM56.22,57.77h2.27v7.49h-2.27v-.74c-.51.57-1.22.9-2.02.9-1.53,0-2.54-1.05-2.54-2.68v-4.96h2.27v4.42c0,.8.37,1.24,1.06,1.24s1.22-.52,1.22-1.32v-4.33ZM62.76,65.42c-.71,0-1.39-.11-2.03-.34-.64-.23-1.12-.52-1.45-.91l1.18-1.53c.58.64,1.55,1.07,2.39,1.07.67,0,1.09-.24,1.09-.6,0-.3-.17-.45-.7-.58l-.23-.04c-.09-.01-.34-.07-.77-.14-.95-.18-1.41-.36-1.76-.58-.53-.36-.8-.88-.8-1.6s.3-1.35.89-1.82c.6-.47,1.36-.71,2.3-.71,1.26,0,2.5.47,3.17,1.19l-1.14,1.46c-.57-.58-1.31-.92-2.05-.92-.55,0-.91.21-.91.55,0,.24.14.37.55.48l.8.16c1.09.23,1.53.38,1.93.61.62.38.92.92.92,1.68s-.31,1.41-.95,1.87c-.64.47-1.45.71-2.46.71ZM70.57,65.42c-1.12,0-2.07-.4-2.77-1.09-.67-.7-1.02-1.69-1.02-2.81s.37-2.03,1.05-2.76c.68-.74,1.63-1.14,2.7-1.14s1.97.38,2.61,1.11c.57.67.89,1.6.89,2.68v.6h-5.07c.16,1.01.77,1.6,1.63,1.6.74,0,1.26-.35,1.48-.99l1.9.61c-.52,1.36-1.83,2.19-3.41,2.19ZM70.5,59.38c-.72,0-1.24.44-1.46,1.24h2.76c-.02-.74-.51-1.24-1.29-1.24Z" fill="#ff2b2b" stroke-width="0"/></svg>