<?xml version="1.0" encoding="UTF-8"?><svg id="Livello_1" xmlns="http://www.w3.org/2000/svg" viewBox="0 0 106.71 106.52"><path d="M48.08,50.84h-6.29v-9.25h2.15v7.41h4.13v1.84ZM51.04,43.35h-2.1v-1.76h2.1v1.76ZM48.95,44.05h2.06v6.79h-2.06v-6.79ZM58.62,44.05l-2.45,6.79h-2.04l-2.45-6.79h2.13l1.38,4.28,1.38-4.28h2.05ZM62.1,50.98c-1.02,0-1.88-.36-2.51-.99-.61-.63-.93-1.53-.93-2.55s.33-1.84.95-2.5c.62-.67,1.48-1.03,2.45-1.03s1.79.35,2.37,1c.52.61.81,1.46.81,2.43v.54h-4.6c.14.91.7,1.46,1.48,1.46.67,0,1.15-.32,1.34-.9l1.73.55c-.48,1.24-1.66,1.98-3.09,1.98ZM62.04,45.5c-.66,0-1.12.4-1.33,1.12h2.5c-.01-.67-.46-1.12-1.17-1.12ZM10.93,57.27c-.66,0-1.19.27-1.6.8-.4.53-.61,1.24-.61,2.1s.21,1.57.61,2.1c.41.53.94.8,1.6.8.94,0,1.64-.59,1.85-1.58l2.02.67c-.61,1.79-1.97,2.78-3.86,2.78-1.28,0-2.4-.49-3.21-1.42-.76-.86-1.16-2.02-1.16-3.35s.4-2.49,1.16-3.35c.81-.93,1.93-1.42,3.21-1.42,1.89,0,3.26.99,3.86,2.78l-2.02.67c-.22-.99-.91-1.58-1.85-1.58ZM21.14,58.87c.61.66.93,1.52.93,2.54s-.32,1.89-.93,2.52c-.61.66-1.48,1-2.47,1s-1.87-.35-2.49-1c-.58-.63-.91-1.51-.91-2.52s.33-1.91.91-2.54c.62-.66,1.49-1,2.49-1s1.87.35,2.47,1ZM18.67,59.55c-.84,0-1.35.68-1.35,1.85s.52,1.85,1.35,1.85,1.35-.68,1.35-1.85-.52-1.85-1.35-1.85ZM26.17,59.72c-.62,0-1.07.48-1.07,1.2v3.88h-2.06v-6.79h2.06v.68c.45-.53,1.09-.82,1.85-.82s1.47.35,1.87.93c.55-.61,1.28-.93,2.1-.93,1.38,0,2.29.97,2.29,2.45v4.48h-2.06v-3.89c0-.76-.32-1.19-.93-1.19s-1.07.48-1.07,1.2v3.88h-2.06v-3.89c0-.77-.32-1.19-.93-1.19ZM37.65,59.72c-.62,0-1.07.48-1.07,1.2v3.88h-2.06v-6.79h2.06v.68c.45-.53,1.09-.82,1.85-.82s1.47.35,1.87.93c.55-.61,1.28-.93,2.1-.93,1.38,0,2.29.97,2.29,2.45v4.48h-2.06v-3.89c0-.76-.32-1.19-.93-1.19s-1.07.48-1.07,1.2v3.88h-2.06v-3.89c0-.77-.32-1.19-.93-1.19ZM50.12,58h2.06v6.79h-2.06v-.67c-.46.52-1.11.81-1.83.81-1.39,0-2.31-.95-2.31-2.43v-4.5h2.06v4.01c0,.72.33,1.12.97,1.12s1.11-.48,1.11-1.2v-3.93ZM55.58,64.79h-2.06v-6.79h2.06v.68c.45-.52,1.11-.82,1.87-.82,1.38,0,2.27.95,2.27,2.45v4.48h-2.06v-3.89c0-.76-.33-1.19-.95-1.19-.66,0-1.12.48-1.12,1.2v3.88ZM63.12,57.31h-2.1v-1.76h2.1v1.76ZM61.03,58h2.06v6.79h-2.06v-6.79ZM67.5,59.56c-.88,0-1.4.7-1.4,1.84s.53,1.83,1.4,1.83c.62,0,1.06-.41,1.21-1.12l1.79.7c-.15.63-.5,1.15-1.06,1.55-.55.39-1.2.58-1.96.58-.99,0-1.87-.35-2.49-1-.62-.63-.94-1.53-.94-2.52s.32-1.88.94-2.54c.62-.66,1.49-1,2.49-1,1.51,0,2.68.85,3,2.1l-1.78.72c-.15-.71-.59-1.12-1.21-1.12ZM75.29,64.19c-.46.48-1.15.73-2.01.73-.68,0-1.25-.19-1.69-.57-.44-.37-.66-.86-.66-1.46,0-1.2.86-1.92,2.61-2.18l1.52-.26v-.12c0-.55-.32-.82-.94-.82-.58,0-.89.24-1.03.81l-1.97-.3c.32-1.33,1.51-2.18,3.09-2.18,1.84,0,2.87.86,2.87,2.4v2.61c0,.35.13.45.53.4v1.52c-1.17.19-1.98-.03-2.33-.61ZM73.75,63.41c.76,0,1.31-.43,1.31-1.06v-.57l-1.19.22c-.67.1-.94.33-.94.75s.31.66.81.66ZM80.91,64.86c-1.56,0-2.2-.55-2.2-1.88v-3.27h-.86v-1.7h.86v-1.88h2.04v1.88h1.33v1.7h-1.33v2.74c0,.48.19.67.81.67.19,0,.28,0,.59-.04v1.69c-.45.06-.82.09-1.24.09ZM85.22,57.31h-2.1v-1.76h2.1v1.76ZM83.13,58h2.06v6.79h-2.06v-6.79ZM92.04,58.87c.61.66.93,1.52.93,2.54s-.32,1.89-.93,2.52c-.61.66-1.48,1-2.47,1s-1.87-.35-2.49-1c-.58-.63-.91-1.51-.91-2.52s.33-1.91.91-2.54c.62-.66,1.49-1,2.49-1s1.87.35,2.47,1ZM89.57,59.55c-.84,0-1.35.68-1.35,1.85s.52,1.85,1.35,1.85,1.35-.68,1.35-1.85-.52-1.85-1.35-1.85ZM96,64.79h-2.06v-6.79h2.06v.68c.45-.52,1.11-.82,1.87-.82,1.38,0,2.27.95,2.27,2.45v4.48h-2.06v-3.89c0-.76-.33-1.19-.95-1.19-.66,0-1.12.48-1.12,1.2v3.88Z" fill="#ff2b2b" stroke-width="0"/></svg>