<?xml version="1.0" encoding="UTF-8"?><svg id="Livello_1" xmlns="http://www.w3.org/2000/svg" viewBox="0 0 106.71 106.52"><path d="M78.31,53.38c-.64-.04-1.24.11-1.83.34-1.85.69-3.38,1.85-4.81,3.16-2.17,1.98-3.91,4.29-5.35,6.83-.22.38-.43.77-.64,1.15.48-1.76,1.22-3.41,2.14-4.97,1.81-3.07,4.05-5.77,6.98-7.88.82-.59,1.67-1.12,2.66-1.38.7-.17,1.4-.25,1.87.49.1-.16.06-.3.05-.43-.1-.73-.2-1.46-.33-2.19-.11-.66-.5-.91-1.18-.78-.66.12-1.26.39-1.84.72-1.75,1.01-3.2,2.35-4.53,3.84-2.75,3.1-4.64,6.64-5.63,10.64-.14.58-.26,1.17-.4,1.82-.06-.28-.09-.56-.09-.84.02-1.57.24-3.13.66-4.64,1.35-4.77,3.85-8.85,7.5-12.24.83-.77,1.73-1.44,2.78-1.91.56-.25,1.12-.4,1.72-.12.03-.17-.05-.29-.1-.42-.26-.64-.53-1.28-.79-1.91-.27-.65-.47-.75-1.17-.57-.14.04-.27.08-.4.13-1.64.66-2.97,1.75-4.22,2.94-2.14,2.02-3.84,4.45-5,7.14-1.02,2.34-1.58,4.86-1.63,7.41-.03,1.45.18,2.87.42,4.3.07.43.21.85.15,1.29-.04-.09-.08-.19-.12-.28-1.49-2.57-1.6-5.37-1.22-8.19.59-4.38,2.29-8.36,4.82-11.99,1.26-1.81,2.68-3.48,4.49-4.79.49-.36,1-.71,1.64-.77.29-.03.3-.11.14-.31-.45-.59-.9-1.19-1.35-1.78-.43-.56-.56-.59-1.21-.26-.86.44-1.58,1.05-2.26,1.72-2.09,2.07-3.69,4.47-4.96,7.09-1.34,2.78-2.39,5.64-2.8,8.71-.22,1.67-.25,3.35,0,5.02.32,2.17,1.23,4.07,2.65,5.75-.28-.1-.5-.29-.73-.47-1.71-1.38-2.74-3.19-3.31-5.25-.97-3.55-.63-7.09.25-10.6.64-2.54,1.68-4.94,2.98-7.23s2.8-4.43,4.77-6.23c.47-.43.96-.84,1.58-1.03.31-.1.24-.18.06-.32-.54-.44-1.08-.88-1.63-1.3-.73-.56-.79-.56-1.55-.03-.04.03-.08.06-.12.09-1.02.75-1.92,1.66-2.67,2.68-3.51,4.75-5.9,9.95-6.36,15.89-.21,2.69,0,5.34.98,7.89.91,2.38,2.4,4.3,4.68,5.56.29.16.59.31.89.46-2.03-.29-3.72-1.22-5.12-2.64-1.77-1.79-2.82-3.98-3.38-6.4-.47-2.04-.63-4.15-.48-6.24.12-1.74.39-3.46.81-5.16.77-3.2,2.14-6.17,3.87-8.97,1.28-2.08,2.65-4.11,4.88-5.37-.06-.1-.19-.13-.31-.18-.64-.29-1.28-.56-1.91-.87-.53-.26-1-.2-1.47.12-.77.53-1.4,1.2-1.98,1.92-1.61,2.01-2.9,4.22-3.98,6.54-1.72,3.7-2.57,7.6-2.65,11.66-.02,1.27.08,2.53.29,3.78.5,3.03,1.49,5.86,3.53,8.25,1.54,1.8,3.46,3.02,5.83,3.51.6.12,1.21.16,1.81.26-.22.05-.45.09-.68.11-.24.03-.48.06-.72.06-3.19.1-5.86-1.06-8.03-3.33-1.76-1.83-2.89-4.03-3.63-6.42-1.12-3.62-1.32-7.32-.82-11.05.66-4.93,2.35-9.49,5.29-13.56.9-1.24,1.8-2.52,3.4-3.02,0,0,0-.04.02-.07-.73-.19-1.48-.27-2.21-.44-.81-.19-1.48.04-2.11.5-.7.51-1.28,1.15-1.82,1.82-1.29,1.6-2.31,3.36-3.13,5.24-1.59,3.61-2.52,7.36-2.67,11.29-.12,2.99.24,5.93,1.15,8.8.96,3,2.4,5.72,4.79,7.88,3.11,2.82,6.7,3.66,10.77,2.51.15-.04.31-.08.48-.13-.02.14-.11.16-.17.19-1.47.81-3.12,1.28-4.81,1.37-3.42.17-6.33-1-8.8-3.28-1.9-1.76-3.26-3.88-4.26-6.23-2-4.68-2.53-9.55-1.92-14.56.54-4.49,2.03-8.64,4.64-12.37.8-1.15,1.75-2.19,2.99-2.92.2-.12.43-.21.73-.35-.71-.03-1.32.05-1.93.05-.97,0-1.79.33-2.54.89-1.77,1.33-2.99,3.09-3.94,5.01-1.98,3.99-2.78,8.26-2.93,12.66-.05,1.79.07,3.59.37,5.36.51,3.12,1.47,6.09,3.08,8.84,1.49,2.53,3.38,4.72,5.95,6.25,3.96,2.35,8,2.42,12.07.24.5-.27.97-.58,1.55-.92-.27.32-.58.61-.91.86-2.79,2.28-6.01,3.13-9.58,2.62-3.32-.47-6.14-1.97-8.51-4.28-2.14-2.09-3.68-4.58-4.79-7.32-1.87-4.63-2.53-9.43-2.08-14.38.26-2.92.92-5.74,2.16-8.42,1.05-2.25,2.46-4.24,4.41-5.84.39-.33.83-.57,1.27-.82-.04-.02-.08-.02-.13-.01-.23.06-.47.13-.7.19-1.87.45-3.43,1.35-4.67,2.82-1.43,1.68-2.43,3.59-3.18,5.63-1.58,4.32-2.01,8.79-1.52,13.34.33,3.1,1.1,6.09,2.43,8.94,1.47,3.16,3.49,5.92,6.3,8.07,2.99,2.29,6.33,3.63,10.18,3.5,2.81-.1,5.3-1.06,7.48-2.8.77-.61,1.43-1.33,2.13-2.14-.02.07-.04.13-.06.19-1.19,2.08-2.83,3.7-5,4.78-2.64,1.32-5.45,1.64-8.35,1.27-3.74-.48-6.94-2.12-9.67-4.65-2.91-2.7-4.88-6-6.2-9.68-1.56-4.33-2.17-8.8-1.78-13.39.2-2.35.67-4.64,1.55-6.84,1.06-2.65,2.59-4.97,4.96-6.68.04-.03.09-.06.04-.12-.04,0-.07.01-.1.02-2.59,1.25-4.48,3.19-5.77,5.72-2.46,4.84-3.14,9.97-2.58,15.29.29,2.72.99,5.39,2.07,7.91,1.39,3.3,3.32,6.23,6.01,8.66,2.31,2.09,4.95,3.61,7.96,4.49,2.67.78,5.39.98,8.12.38,3.97-.88,6.95-3.03,8.69-6.71.08-.16.15-.31.23-.48.09.12.03.22.01.31-.19.98-.56,1.91-1.09,2.76-1.68,2.75-4.23,4.35-7.29,5.25-2.11.62-4.26.71-6.44.54-2.39-.19-4.71-.83-6.84-1.9-3.6-1.79-6.39-4.45-8.58-7.75-2.98-4.48-4.52-9.43-4.81-14.76-.12-2.12.03-4.24.45-6.32.65-3.21,1.89-6.16,3.99-8.73.17-.21.34-.42.51-.63-.45.29-.79.68-1.16,1.05-1.72,1.76-2.92,3.82-3.74,6.11-1.44,3.99-1.76,8.09-1.18,12.27.75,5.36,2.8,10.17,6.46,14.25,3.96,4.42,8.85,7.16,14.89,7.71,3.35.31,6.57-.19,9.55-1.8,2.77-1.5,4.68-3.68,5.33-6.8.11-.54.15-1.09.22-1.63.16.51.24,1.03.24,1.56.03,2.07-.79,3.81-2.21,5.29-1.39,1.45-3.08,2.48-4.95,3.2-3.02,1.17-6.15,1.5-9.36,1.18-3.6-.36-6.88-1.61-9.87-3.6-3.09-2.06-5.58-4.68-7.51-7.81-2.93-4.75-4.32-9.89-3.99-15.46.18-2.99.91-5.92,2.17-8.64.12-.25.23-.51.34-.76-.11.07-.2.17-.26.28-.51.94-.96,1.91-1.34,2.91-1.5,3.93-1.91,8.18-1.19,12.32,1.04,6.11,3.84,11.31,8.53,15.47,4.05,3.59,8.79,5.67,14.26,6.1,2.86.23,5.66-.08,8.37-.99,2.4-.8,4.54-2,6.14-3.99,1.3-1.62,1.81-3.45,1.38-5.51-.12-.59-.35-1.14-.55-1.7,1.18,1.22,1.8,2.65,1.55,4.36-.24,1.65-1.13,2.97-2.31,4.11-1.55,1.5-3.41,2.54-5.46,3.23-3.03,1.02-6.15,1.25-9.32.92-3.83-.39-7.53-1.61-10.82-3.59-.29-.17-.57-.35-.91-.55.07.2.2.24.3.31,1.42.94,2.93,1.73,4.52,2.37,3.87,1.56,7.9,2.24,12.09,1.85,2.7-.25,5.27-.93,7.67-2.19,1.79-.94,3.39-2.11,4.5-3.82.96-1.49,1.31-3.07.5-4.75-.51-1.05-1.33-1.83-2.28-2.48.51.08.97.3,1.42.54,1.68.92,2.61,2.28,2.47,4.23-.08,1.05-.53,1.96-1.16,2.78-1.25,1.64-2.98,2.68-4.82,3.55-.66.31-1.35.57-2.05.87.16.06.26-.01.36-.05,1.79-.6,3.51-1.37,5.09-2.4,1.53-.99,2.83-2.22,3.61-3.89.73-1.55.5-3.12-.66-4.11-1.22-1.05-2.71-1.46-4.28-1.62.28-.12.58-.07.87-.09,1.49-.09,2.93.1,4.25.82,1.51.83,2.01,2.27,1.36,3.85-.28.68-.7,1.28-1.18,1.83-.26.3-.53.59-.79.88.03,0,.05,0,.08,0,.03,0,.05-.02.07-.03.74-.62,1.44-1.28,2.09-1.98.45-.48.81-1.03,1.07-1.63.8-1.88,0-3.54-1.99-4.08-.92-.25-1.85-.29-2.8-.21-.95.08-1.86.28-2.79.41,1.09-.53,2.24-.92,3.42-1.17,1.31-.27,2.62-.38,3.94-.03,1.65.43,2.28,1.63,1.67,3.2-.12.31-.27.61-.41.91.69-.94,1.44-1.84,1.83-2.95.31-.87,0-1.72-.78-2.25-.57-.39-1.23-.55-1.91-.58-1.57-.05-3.02.42-4.44,1-1.14.46-2.19,1.07-3.26,1.65.07-.09.15-.17.23-.25,1.73-1.42,3.57-2.67,5.68-3.49,1.24-.49,2.52-.81,3.87-.7,1.29.1,1.94.88,1.73,2.13-.02.05-.02.1-.01.14s.03.09.07.13c.37-1.03.83-1.99.97-3.05.04-.28-.1-.56-.31-.79-.45-.5-1.05-.65-1.68-.68-1.46-.06-2.78.46-4.04,1.11-1.9.98-3.54,2.31-5.08,3.76-.5.48-1,.96-1.5,1.45.05-.1.1-.2.16-.3.87-1.24,1.84-2.41,2.89-3.5,1.75-1.78,3.66-3.35,5.97-4.39.88-.39,1.79-.68,2.77-.61.78.05,1.22.41,1.36,1.17,0,.04,0,.1.11.11.11-.9.27-1.8.29-2.71,0-.73-.42-1.16-1.16-1.21Z" fill="#121848" stroke-width="0"/></svg>