<?xml version="1.0" encoding="UTF-8"?><svg id="Livello_1" xmlns="http://www.w3.org/2000/svg" viewBox="0 0 106.71 106.52"><path d="M35.23,39.88h2.27v10.2h-2.06l-4.49-6.57v6.57h-2.27v-10.2h2.37l4.18,6.23v-6.23ZM42.44,50.24c-1.12,0-2.07-.4-2.77-1.09-.67-.7-1.02-1.69-1.02-2.81,0-1.06.37-2.03,1.05-2.75.68-.74,1.63-1.14,2.7-1.14s1.97.38,2.61,1.11c.57.67.89,1.6.89,2.68v.6h-5.07c.16,1.01.77,1.6,1.63,1.6.74,0,1.26-.36,1.48-1l1.9.61c-.53,1.36-1.83,2.19-3.41,2.19ZM42.37,44.2c-.72,0-1.24.44-1.46,1.24h2.76c-.01-.74-.51-1.24-1.29-1.24ZM49.48,46.99l1.12-4.39h1.7l1.14,4.39,1.15-4.39h2.22l-2.27,7.48h-1.95l-1.18-4.15-1.18,4.15h-1.95l-2.27-7.48h2.29l1.18,4.39ZM60.35,50.15c-1.72,0-2.43-.61-2.43-2.07v-3.61h-.95v-1.87h.95v-2.07h2.24v2.07h1.46v1.87h-1.46v3.02c0,.53.21.74.89.74.21,0,.31,0,.65-.04v1.86c-.5.07-.91.1-1.36.1ZM68.82,43.55c.67.72,1.02,1.68,1.02,2.8s-.36,2.09-1.02,2.78c-.67.72-1.63,1.11-2.73,1.11s-2.06-.38-2.74-1.11c-.64-.7-1.01-1.66-1.01-2.78s.37-2.1,1.01-2.8c.68-.72,1.65-1.11,2.74-1.11s2.06.38,2.73,1.11ZM66.1,44.3c-.92,0-1.49.75-1.49,2.05s.57,2.04,1.49,2.04,1.49-.75,1.49-2.04-.57-2.05-1.49-2.05ZM73.19,50.08h-2.27v-7.48h2.27v.75c.5-.57,1.22-.91,2.06-.91,1.52,0,2.5,1.05,2.5,2.7v4.94h-2.27v-4.29c0-.84-.37-1.31-1.05-1.31-.72,0-1.24.53-1.24,1.32v4.27ZM31.44,60.17v3.86h-2.33v-10.2h7.14v2.03h-4.81v2.31h4.01v1.99h-4.01ZM40.95,63.37c-.51.52-1.26.81-2.22.81-.75,0-1.38-.21-1.86-.62-.48-.41-.72-.95-.72-1.6,0-1.32.95-2.12,2.88-2.4l1.68-.28v-.13c0-.61-.35-.91-1.04-.91-.64,0-.98.27-1.14.9l-2.17-.33c.35-1.46,1.66-2.4,3.41-2.4,2.03,0,3.17.95,3.17,2.64v2.88c0,.38.14.5.58.44v1.68c-1.29.21-2.19-.03-2.57-.67ZM39.26,62.52c.84,0,1.45-.47,1.45-1.16v-.62l-1.31.24c-.74.11-1.04.37-1.04.82s.34.72.89.72ZM47.87,58.27c-.97,0-1.55.77-1.55,2.03s.58,2.02,1.55,2.02c.68,0,1.16-.46,1.34-1.24l1.97.77c-.17.7-.55,1.26-1.16,1.7-.61.43-1.32.64-2.16.64-1.09,0-2.06-.38-2.74-1.11-.68-.7-1.04-1.69-1.04-2.78s.35-2.07,1.04-2.8c.68-.72,1.65-1.11,2.74-1.11,1.66,0,2.95.94,3.31,2.32l-1.96.8c-.17-.78-.65-1.24-1.34-1.24ZM54.78,64.11c-1.72,0-2.43-.61-2.43-2.07v-3.61h-.95v-1.87h.95v-2.07h2.24v2.07h1.46v1.87h-1.46v3.02c0,.53.21.74.89.74.21,0,.31,0,.65-.04v1.86c-.5.07-.91.1-1.36.1ZM63.25,57.5c.67.72,1.02,1.68,1.02,2.8s-.35,2.09-1.02,2.78c-.67.72-1.63,1.11-2.73,1.11s-2.06-.38-2.74-1.11c-.64-.7-1.01-1.66-1.01-2.78s.37-2.1,1.01-2.8c.68-.72,1.65-1.11,2.74-1.11s2.06.38,2.73,1.11ZM60.52,58.26c-.92,0-1.49.75-1.49,2.05s.57,2.04,1.49,2.04,1.49-.75,1.49-2.04-.57-2.05-1.49-2.05ZM69.54,56.51c.16,0,.27.01.5.03v2.19c-.24-.04-.4-.06-.67-.06-1.04,0-1.76.67-1.76,1.69v3.68h-2.27v-7.48h2.27v.98c.35-.62,1.09-1.02,1.93-1.02ZM78.03,56.55l-2.85,7.65c-.67,1.82-1.49,2.43-3.01,2.43-.34,0-.55,0-.85-.04v-1.8c.23.04.38.04.57.04.55,0,.81-.18.98-.64l.18-.48-2.66-7.16h2.34l1.53,4.6,1.5-4.6h2.26Z" fill="#ff2b2b" stroke-width="0"/></svg>