<?xml version="1.0" encoding="UTF-8"?><svg id="Livello_1" xmlns="http://www.w3.org/2000/svg" viewBox="0 0 106.71 106.52"><path d="M15.96,61.65v-16.39h2.43v16.39h-2.43Z" fill="#3b667d" stroke-width="0"/><path d="M24.92,57.06v-11.8h2.42v11.8c0,.6.21,1.11.63,1.53.42.42.93.63,1.52.63h8.13v2.42h-8.13c-1.26,0-2.34-.45-3.23-1.34s-1.34-1.98-1.34-3.24Z" fill="#3b667d" stroke-width="0"/><path d="M43,61.65v-16.39h12.71v2.42h-10.28v11.54h10.28v2.43h-12.71ZM46.82,54.33v-2.42h8.9v2.42h-8.9Z" fill="#3b667d" stroke-width="0"/><path d="M62.64,48.13h-1.5v-.33h.57v-2.63h-.57v-.33h1.5v.33h-.55v2.63h.55v.33Z" fill="#3b667d" stroke-width="0"/><path d="M66.08,48.13h-.37v-2.83l-.5,1.35h-.36l-.5-1.35v2.83h-.37v-3.3h.5l.55,1.5.55-1.5h.5v3.3Z" fill="#3b667d" stroke-width="0"/><path d="M69.18,48.13h-.37v-2.83l-.5,1.35h-.36l-.5-1.35v2.83h-.37v-3.3h.5l.55,1.5.55-1.5h.5v3.3Z" fill="#3b667d" stroke-width="0"/><path d="M72.11,48.13h-1.72v-3.3h1.71v.33h-1.32v1.02h1.27v.33h-1.27v1.27h1.34v.33Z" fill="#3b667d" stroke-width="0"/><path d="M75.64,48.13h-.48l-.97-1.5h-.43v1.5h-.38v-3.3h.93c.31,0,.56.08.74.23.18.15.27.36.27.63,0,.2-.07.38-.2.54s-.31.26-.55.32l1.05,1.58ZM73.77,46.3h.48c.2,0,.37-.06.49-.16.13-.11.19-.25.19-.41,0-.37-.22-.55-.67-.55h-.49v1.13Z" fill="#3b667d" stroke-width="0"/><path d="M78.14,45.19c-.2-.07-.38-.1-.56-.1-.2,0-.36.05-.49.14-.13.09-.19.22-.19.39,0,.2.16.37.49.53.24.11.4.19.48.23.08.04.16.1.24.18.08.08.15.17.2.27s.07.22.07.35c0,.32-.11.57-.32.75-.22.18-.47.27-.76.27s-.53-.06-.75-.17l.08-.33c.25.11.47.17.66.17.22,0,.39-.06.52-.17.13-.11.2-.27.2-.47,0-.15-.04-.27-.13-.37-.09-.1-.24-.21-.47-.31-.24-.11-.39-.18-.46-.22-.07-.04-.14-.09-.21-.16s-.12-.15-.16-.24c-.04-.09-.06-.18-.06-.29,0-.27.1-.49.29-.64s.44-.23.75-.23c.22,0,.44.03.65.1l-.09.33Z" fill="#3b667d" stroke-width="0"/><path d="M81.28,48.13h-1.5v-.33h.57v-2.63h-.57v-.33h1.5v.33h-.55v2.63h.55v.33Z" fill="#3b667d" stroke-width="0"/><path d="M84.95,44.83l-1.08,3.3h-.46l-1.08-3.3h.4l.9,2.85.91-2.85h.4Z" fill="#3b667d" stroke-width="0"/><path d="M87.64,48.13h-1.72v-3.3h1.71v.33h-1.32v1.02h1.27v.33h-1.27v1.27h1.34v.33Z" fill="#3b667d" stroke-width="0"/><path d="M62.87,54.91h-1.79v-3.3h.38v2.96h1.41v.33Z" fill="#3b667d" stroke-width="0"/><path d="M65.9,54.91h-1.72v-3.3h1.71v.33h-1.33v1.02h1.27v.33h-1.27v1.27h1.34v.33Z" fill="#3b667d" stroke-width="0"/><path d="M69.43,54.91h-.4l-.36-1.15h-1.08l-.37,1.15h-.4l1.08-3.3h.46l1.08,3.3ZM68.56,53.42l-.43-1.36-.43,1.36h.86Z" fill="#3b667d" stroke-width="0"/><path d="M72.54,54.91h-.48l-.97-1.5h-.43v1.5h-.38v-3.3h.93c.31,0,.56.08.74.23.18.15.27.36.27.63,0,.2-.07.38-.2.54-.13.16-.31.26-.55.32l1.05,1.58ZM70.66,53.08h.48c.2,0,.37-.05.49-.16.13-.11.19-.25.19-.42,0-.37-.22-.55-.67-.55h-.49v1.13Z" fill="#3b667d" stroke-width="0"/><path d="M75.33,54.91h-.43l-1.18-2.6v2.6h-.38v-3.3h.43l1.19,2.58v-2.58h.38v3.3Z" fill="#3b667d" stroke-width="0"/><path d="M78.17,54.91h-1.5v-.33h.57v-2.63h-.57v-.33h1.5v.33h-.55v2.63h.55v.33Z" fill="#3b667d" stroke-width="0"/><path d="M81.54,54.91h-.43l-1.18-2.6v2.6h-.38v-3.3h.43l1.19,2.58v-2.58h.38v3.3Z" fill="#3b667d" stroke-width="0"/><path d="M84.72,54.67c-.27.2-.57.3-.89.3-.43,0-.75-.15-.97-.44s-.33-.72-.33-1.27.11-.96.32-1.26c.21-.3.54-.45.99-.45.16,0,.32.02.47.06.16.04.28.09.38.16l-.13.3c-.22-.12-.46-.19-.72-.19-.3,0-.53.11-.68.33-.15.22-.22.57-.22,1.04,0,.92.3,1.37.9,1.37.23,0,.4-.05.51-.14v-.81h-.59v-.33h.98v1.33Z" fill="#3b667d" stroke-width="0"/><path d="M62.79,61.69h-1.72v-3.3h1.71v.33h-1.33v1.02h1.27v.33h-1.27v1.27h1.34v.33Z" fill="#3b667d" stroke-width="0"/><path d="M66.3,61.69h-.43l-.84-1.35-.83,1.35h-.43l1.05-1.68-1.05-1.62h.44l.81,1.31.82-1.31h.42l-1.03,1.62,1.06,1.68Z" fill="#3b667d" stroke-width="0"/><path d="M67.28,58.39h.84c.32,0,.57.08.76.24.19.16.28.38.28.66s-.09.5-.28.67c-.19.17-.44.25-.74.25h-.47v1.48h-.38v-3.3ZM67.67,59.88h.42c.45,0,.68-.19.68-.57,0-.17-.06-.32-.18-.42-.12-.11-.28-.16-.47-.16h-.43v1.15Z" fill="#3b667d" stroke-width="0"/><path d="M72.11,61.69h-1.72v-3.3h1.71v.33h-1.32v1.02h1.27v.33h-1.27v1.27h1.34v.33Z" fill="#3b667d" stroke-width="0"/><path d="M75.64,61.69h-.48l-.97-1.5h-.43v1.5h-.38v-3.3h.93c.31,0,.56.08.74.23.18.15.27.36.27.63,0,.2-.07.38-.2.54-.13.16-.31.26-.55.32l1.05,1.58ZM73.77,59.86h.48c.2,0,.37-.05.49-.16.13-.11.19-.25.19-.42,0-.37-.22-.55-.67-.55h-.49v1.13Z" fill="#3b667d" stroke-width="0"/><path d="M78.17,61.69h-1.5v-.33h.57v-2.63h-.57v-.33h1.5v.33h-.55v2.63h.55v.33Z" fill="#3b667d" stroke-width="0"/><path d="M81.43,61.69h-1.72v-3.3h1.71v.33h-1.33v1.02h1.27v.33h-1.27v1.27h1.34v.33Z" fill="#3b667d" stroke-width="0"/><path d="M84.65,61.69h-.43l-1.18-2.6v2.6h-.38v-3.3h.43l1.19,2.58v-2.58h.38v3.3Z" fill="#3b667d" stroke-width="0"/><path d="M87.83,61.48c-.26.18-.56.27-.9.27-.43,0-.75-.15-.97-.44-.22-.29-.33-.72-.33-1.27s.11-.96.32-1.26c.22-.3.54-.45.98-.45.16,0,.32.02.47.06.16.04.28.09.38.16l-.13.3c-.22-.12-.46-.19-.72-.19-.3,0-.53.11-.68.33-.15.22-.22.57-.22,1.05,0,.92.3,1.37.9,1.37.25,0,.51-.08.78-.23l.12.3Z" fill="#3b667d" stroke-width="0"/><path d="M90.75,61.69h-1.72v-3.3h1.71v.33h-1.32v1.02h1.27v.33h-1.27v1.27h1.34v.33Z" fill="#3b667d" stroke-width="0"/></svg>