<?xml version="1.0" encoding="UTF-8"?><svg id="Livello_1" xmlns="http://www.w3.org/2000/svg" viewBox="0 0 106.71 106.52"><path d="M22.14,42.76l-2.04,6.4h-1.55l-2.04-6.4v6.4h-2.05v-9.25h3l1.88,6.07,1.88-6.07h2.95v9.25h-2.05v-6.4ZM29.53,48.56c-.46.48-1.15.73-2.01.73-.68,0-1.25-.19-1.69-.57s-.66-.86-.66-1.46c0-1.2.86-1.92,2.61-2.18l1.52-.26v-.12c0-.55-.32-.82-.94-.82-.58,0-.89.24-1.03.81l-1.97-.3c.32-1.33,1.51-2.18,3.09-2.18,1.84,0,2.87.86,2.87,2.4v2.61c0,.35.13.45.53.4v1.52c-1.17.19-1.98-.03-2.33-.61ZM27.99,47.79c.76,0,1.31-.43,1.31-1.06v-.57l-1.19.22c-.67.1-.94.33-.94.75s.31.66.81.66ZM34.83,49.17h-2.06v-6.79h2.06v.68c.45-.52,1.11-.82,1.87-.82,1.38,0,2.27.95,2.27,2.45v4.48h-2.06v-3.89c0-.76-.33-1.19-.95-1.19-.66,0-1.12.48-1.12,1.2v3.88ZM44.21,48.56c-.46.48-1.15.73-2.01.73-.68,0-1.25-.19-1.69-.57-.44-.37-.66-.86-.66-1.46,0-1.2.86-1.92,2.61-2.18l1.52-.26v-.12c0-.55-.32-.82-.94-.82-.58,0-.89.24-1.03.81l-1.97-.3c.32-1.33,1.51-2.18,3.09-2.18,1.84,0,2.87.86,2.87,2.4v2.61c0,.35.13.45.53.4v1.52c-1.17.19-1.98-.03-2.33-.61ZM42.68,47.79c.76,0,1.31-.43,1.31-1.06v-.57l-1.19.22c-.67.1-.94.33-.94.75s.31.66.81.66ZM53.92,42.38v5.98c0,1-.32,1.79-.97,2.36-.63.58-1.51.86-2.6.86-1.71,0-2.87-.72-3.23-2.02l1.96-.46c.17.58.67.93,1.34.93.93,0,1.43-.5,1.43-1.43v-.44c-.35.48-1.06.8-1.83.8-.89,0-1.66-.35-2.19-1-.46-.61-.73-1.43-.73-2.34s.27-1.74.73-2.34c.53-.67,1.3-1.02,2.19-1.02.76,0,1.48.33,1.83.81v-.67h2.07ZM51.87,45.7v-.21c0-.97-.52-1.56-1.33-1.56-.86,0-1.35.62-1.35,1.65s.52,1.66,1.35,1.66,1.33-.61,1.33-1.55ZM58.34,49.31c-1.02,0-1.88-.36-2.51-.99-.61-.63-.93-1.53-.93-2.55s.33-1.84.95-2.5c.62-.67,1.48-1.03,2.45-1.03s1.79.35,2.37,1c.52.61.81,1.46.81,2.43v.54h-4.6c.14.91.7,1.46,1.48,1.46.67,0,1.15-.32,1.34-.9l1.73.55c-.48,1.24-1.66,1.98-3.09,1.98ZM58.27,43.83c-.66,0-1.12.4-1.33,1.12h2.5c-.01-.67-.46-1.12-1.17-1.12ZM65.55,44.09c-.62,0-1.07.48-1.07,1.2v3.88h-2.06v-6.79h2.06v.68c.45-.53,1.09-.82,1.85-.82s1.47.35,1.87.93c.55-.61,1.28-.93,2.1-.93,1.38,0,2.29.97,2.29,2.45v4.48h-2.06v-3.89c0-.76-.32-1.19-.93-1.19s-1.07.48-1.07,1.2v3.88h-2.06v-3.89c0-.77-.32-1.19-.93-1.19ZM76.97,49.31c-1.02,0-1.88-.36-2.51-.99-.61-.63-.93-1.53-.93-2.55s.33-1.84.95-2.5c.62-.67,1.48-1.03,2.45-1.03s1.79.35,2.37,1c.52.61.81,1.46.81,2.43v.54h-4.6c.14.91.7,1.46,1.48,1.46.67,0,1.15-.32,1.34-.9l1.73.55c-.48,1.24-1.66,1.98-3.09,1.98ZM76.91,43.83c-.66,0-1.12.4-1.33,1.12h2.5c-.01-.67-.46-1.12-1.17-1.12ZM83.11,49.17h-2.06v-6.79h2.06v.68c.45-.52,1.11-.82,1.87-.82,1.38,0,2.27.95,2.27,2.45v4.48h-2.06v-3.89c0-.76-.33-1.19-.95-1.19-.66,0-1.12.48-1.12,1.2v3.88ZM90.99,49.23c-1.56,0-2.2-.55-2.2-1.88v-3.27h-.86v-1.7h.86v-1.88h2.04v1.88h1.33v1.7h-1.33v2.74c0,.48.19.67.81.67.19,0,.28,0,.59-.04v1.69c-.45.06-.82.09-1.24.09ZM25.57,56.67c-.66,0-1.19.27-1.6.8-.4.53-.61,1.24-.61,2.1s.21,1.57.61,2.1c.41.53.94.8,1.6.8.94,0,1.64-.59,1.85-1.58l2.02.67c-.61,1.79-1.97,2.78-3.86,2.78-1.28,0-2.4-.49-3.21-1.42-.76-.86-1.16-2.02-1.16-3.35s.4-2.49,1.16-3.35c.81-.93,1.93-1.42,3.21-1.42,1.89,0,3.26.99,3.86,2.78l-2.02.67c-.22-.99-.91-1.58-1.85-1.58ZM35.78,58.27c.61.66.93,1.52.93,2.54s-.32,1.89-.93,2.52c-.61.66-1.48,1-2.47,1s-1.87-.35-2.49-1c-.58-.63-.91-1.51-.91-2.52s.33-1.91.91-2.54c.62-.66,1.49-1,2.49-1s1.87.35,2.47,1ZM33.31,58.95c-.84,0-1.35.68-1.35,1.85s.52,1.85,1.35,1.85,1.35-.68,1.35-1.85-.52-1.85-1.35-1.85ZM39.74,64.19h-2.06v-6.79h2.06v.68c.45-.52,1.11-.82,1.87-.82,1.38,0,2.27.95,2.27,2.45v4.48h-2.06v-3.89c0-.76-.33-1.19-.95-1.19-.66,0-1.12.48-1.12,1.2v3.88ZM47.72,64.34c-.64,0-1.26-.1-1.84-.31-.58-.21-1.02-.48-1.31-.82l1.07-1.39c.53.58,1.4.97,2.16.97.61,0,.99-.22.99-.54,0-.27-.15-.41-.63-.53l-.21-.04c-.08-.01-.31-.06-.7-.13-.86-.17-1.28-.32-1.6-.53-.48-.32-.72-.8-.72-1.46s.27-1.22.81-1.65c.54-.43,1.24-.64,2.09-.64,1.15,0,2.27.43,2.87,1.08l-1.03,1.33c-.52-.53-1.19-.84-1.85-.84-.5,0-.82.19-.82.5,0,.22.13.33.5.44l.72.14c.99.21,1.39.35,1.75.55.57.35.84.84.84,1.52s-.28,1.28-.86,1.7c-.58.43-1.31.64-2.23.64ZM55.82,57.41h2.06v6.79h-2.06v-.67c-.46.52-1.11.81-1.83.81-1.39,0-2.31-.95-2.31-2.43v-4.5h2.06v4.01c0,.72.33,1.12.97,1.12s1.11-.48,1.11-1.2v-3.93ZM59.22,54.95h2.06v9.25h-2.06v-9.25ZM65.07,64.26c-1.56,0-2.2-.55-2.2-1.88v-3.27h-.86v-1.7h.86v-1.88h2.04v1.88h1.33v1.7h-1.33v2.74c0,.48.19.67.81.67.19,0,.28,0,.59-.04v1.69c-.45.06-.82.09-1.24.09ZM69.37,56.71h-2.1v-1.76h2.1v1.76ZM67.29,57.41h2.06v6.79h-2.06v-6.79ZM72.76,64.19h-2.06v-6.79h2.06v.68c.45-.52,1.11-.82,1.87-.82,1.38,0,2.27.95,2.27,2.45v4.48h-2.06v-3.89c0-.76-.33-1.19-.95-1.19-.66,0-1.12.48-1.12,1.2v3.88ZM84.7,57.41v5.98c0,1-.32,1.79-.97,2.36-.63.58-1.51.86-2.6.86-1.71,0-2.87-.72-3.23-2.02l1.96-.46c.17.58.67.93,1.34.93.93,0,1.43-.5,1.43-1.43v-.44c-.35.48-1.06.8-1.83.8-.89,0-1.66-.35-2.19-1-.46-.61-.73-1.43-.73-2.34s.27-1.74.73-2.34c.53-.67,1.3-1.02,2.19-1.02.76,0,1.48.33,1.83.81v-.67h2.07ZM82.65,60.73v-.21c0-.97-.52-1.56-1.33-1.56-.86,0-1.35.62-1.35,1.65s.52,1.66,1.35,1.66,1.33-.61,1.33-1.55Z" fill="#ff2b2b" stroke-width="0"/></svg>